<svg xmlns="http://www.w3.org/2000/svg" viewBox="0 0 962.85 962.85"><defs><style>.cls-1{fill:#09040d;}.cls-2{fill:#260102;}.cls-3{fill:#4e0103;}.cls-4{fill:#890306;}.cls-5{fill:#8f2623;}.cls-6{fill:#b03e38;}.cls-7{fill:#d64a37;}.cls-8{fill:#f3683f;}.cls-9{fill:#f1884a;}.cls-10{fill:#f79c40;}.cls-11{fill:#fab044;}.cls-12{fill:#fcce3b;}.cls-13{fill:#fcea76;}.cls-14{fill:#fcf1b4;}.cls-15{fill:#fdf8d8;}.cls-16{fill:#fefefd;}</style></defs><title>Black Hole</title><g id="Layer_2" data-name="Layer 2"><g id="Black_Hole_3" data-name="Black Hole 3"><circle class="cls-1" cx="481.42" cy="481.42" r="481.42"/><path class="cls-2" d="M937.78,481.43C937.78,734,733,938.78,480.42,938.78S23.07,734,23.07,481.43q0-13.55.78-26.88t2.3-26.46c2.91-26,8.89-50.9,15.14-75.43,2.87-9.22,5.57-17.45,8.44-25.48C113,150.48,282,24.07,480.42,24.07,733,24.07,937.78,228.84,937.78,481.43Z"/><path class="cls-3" d="M916,481.43C916,722,721,917,480.42,917c-146,0-275.32-71.89-354.34-182.21q-7-9.74-13.42-19.86c-14.74-28-33.74-54-42.14-84.7-3-9.13-5.52-17.17-7.87-25.14a435.9,435.9,0,0,1-17.8-123.66c0-8.6.4-16.84,2.35-22.57,2.72-4.93,3.72-10.93,4.72-16.93,4-44-1-90,24.91-128.38,5.18-9,8.75-16.45,12.29-23.68,70.88-144.52,219.48-244,391.3-244C721,45.85,916,240.86,916,481.43Z"/><path class="cls-4" d="M894.22,481.43q0,13.17-.81,26.16T891,533.33c-8.08,48.6-19.08,98.6-45.26,142.62q-5.81,10.88-12.23,21.35C760.78,816,629.85,895.22,480.42,895.22c-131.84,0-249.29-61.66-325.06-157.72a72.51,72.51,0,0,1-9.87-17.76c-23.57-43.81-63.57-80.81-67.13-133.59-.62-5.36-1.35-10.15-2-15.13a414.49,414.49,0,0,1-9.44-74.28c0-4.92,0-9.87,2-13.19,9-14.62,14-30.62,10-48.62-13-55-1-108,36.19-148q5.81-10.87,12.23-21.35C200.07,146.83,331,67.63,480.42,67.63,709,67.63,894.22,252.89,894.22,481.43Z"/><path class="cls-5" d="M873.53,481.43c0,9-.36,17.93-1.07,26.58a614.86,614.86,0,0,0-14.54,82.92c-5,32-17,62-36.49,88.19-5.45,7.8-10.14,15-15,22.09a395.45,395.45,0,0,1-79.58,86.54,117.61,117.61,0,0,1-17.18,11.56c-40.72,26.62-80.72,55.62-131,62.85q-11.77,3-23.83,5.34a395.76,395.76,0,0,1-74.42,7q-13.56,0-26.91-.91c-8.73-.63-17.38-1.57-24.2-3.35-46.39-12.34-97.39-13.34-136-42.92-3.9-2.23-7.62-4.36-11.26-6.49a394.58,394.58,0,0,1-87.35-69.48q-7.68-8.13-14.9-16.68c-7.85-37.77-37.85-61.77-61.85-90.77-21-26-26-59-24.58-91.37-1.2-8-2.24-15.83-3.18-23.62S88.51,513.29,88,505.37c8.88-21.44,25.88-42.44,16.88-66.44-17-46-22-104,20.53-137.46,8.32-7.36,12.6-14.06,16.83-20.63q5.81-9.79,12.17-19.2,7.06-10.47,14.78-20.43C204.92,205.93,233.92,161.93,282,142q10.92-6.41,22.27-12.1A390.9,390.9,0,0,1,456.85,89c7.63-.4,15.32-.57,22.45-.25,43.62,1.17,87.62,5.17,129.52,20.64,8.66,3.28,16.78,6.5,24.62,9.81a393.23,393.23,0,0,1,106.61,67q9.45,8.31,18.34,17.21c31.53,38.47,69.53,75.47,84.25,125q5,11.76,9.19,23.9A392.43,392.43,0,0,1,873.53,481.43Z"/><path class="cls-6" d="M853.88,481.43c-1,20.5-12,38.5-12,58.5-1,54-10,111-51.49,150.21-4.73,6.7-9.49,13.18-14.37,19.49a373.44,373.44,0,0,1-31.57,35.86c-5.63,5.64-11.42,11-17.31,15.94-36.26,13.5-60.26,44.5-93.26,65.5-24,14-51,19-78,20.43-8.3,1.61-16.53,3-24.82,4.11a376.54,376.54,0,0,1-50.68,3.41c-8.59,0-16.88-.46-23.08-2.66-12.42-5.29-25.42-11.29-38.42-11.29-49,2-101-5-136.81-42.26-3.63-2.71-7.07-5.14-10.49-7.57a376.24,376.24,0,0,1-52.08-42.46q-8-7.82-15.55-16.11c-6.07-20.6-9.07-43.6-28.07-57.6-49-36-80-87-65.95-145.94-1-7.79-1.74-15.65,1.06-22.76,14.89-23.3,28.89-53.3,12.89-78.3-29-49-14-109,34-135,4-6.92,8.33-13.6,12.79-20,6.17-7.05,15.17-11.05,20.17-18.05,35-45,65-94,121.77-107.51q11.22-5.4,22.37-10.1a370.85,370.85,0,0,1,88.49-25q9.27-1.43,18.69-2.38c60.68,3,126.68-6,182.69,26,8,4.14,15.49,7.74,22.82,11.56a373.4,373.4,0,0,1,57.71,35.89q9,6.82,17.6,14.16c19.86,27.41,41.86,51.41,66.86,74.41,20,17,33,41,38.87,66.61,2.34,9.95,4.31,19,6.64,26.65a371.79,371.79,0,0,1,17.91,96.07Q853.88,471.28,853.88,481.43Z"/><path class="cls-7" d="M835.2,481.43c-20.28,37.5-13.28,79.5-16.28,120.5-2,28-16,54-35.85,72.66a222,222,0,0,0-19.28,20.34q-6.94,9.2-14.45,17.92t-15.56,16.93c-2.86,3.15-5.86,6.15-9.86,8.15-43,11-63,48-96,74-30,22-65,20-98.74,21q-12,1.65-24.15,2.48t-24.61.84c-29.5-18.27-61.5-21.27-96.5-14.27-44,8-81-17-106.81-49-3.47-2.84-6.84-5.42-10.19-8.17a357.12,357.12,0,0,1-34.85-30c-5.47-5.37-10.31-11.1-12.11-18.3-5-41.55-38-65.55-70-90.55-29-22-32-61-24.18-93.9,1.57-9.49,1-17.71,3.64-25.82,29.54-34.28,20.54-81.28-.46-119.28-15-29,7-64,34.05-79.73,10.09-5,15.47-11.4,21-15.31,14.93-10,28.93-21,35.93-36,22-47,56-88,108.18-97.53,9.81-2.51,17.79-5.68,25.91-8.57a351.62,351.62,0,0,1,61.23-17.21,135.81,135.81,0,0,1,20.55-2c65.13,5.35,136.13-13.65,193.46,26.85,8.09,5.08,15.63,9.19,23,13.54a354.71,354.71,0,0,1,39.18,25.23c6.23,4.62,11.91,9.51,14.94,15.08,6.53,13.65,13.53,28.65,26.53,36.65,51,33,90,77,89,137.14q3.24,11.49,5.71,23.28a355.34,355.34,0,0,1,7.05,54.41Q835.2,472,835.2,481.43Z"/><path class="cls-8" d="M814.36,480.39c-19.44,39.54-10.44,82.54-12.44,124.54-2,33-26,60-51.84,79.43-5.07,6.21-10.14,12.27-15.29,18.19s-10.59,11.34-16.85,14.5c-38,9.88-62,38.88-87,69.88-23,30-63,36-98.83,30.15-9.61-.63-18,.07-26.51.46-8.31.61-16.69.92-23.07-3.15-31.59-27.46-70.59-14.46-108.59-7.46-42,8-76-23-96.35-55.9-6.26-5-12.35-10.09-18.27-15.24s-11.65-10.5-17.2-16c-5.14-5.81-7.26-13.8-9.31-22.08-7.87-37.74-38.87-61.74-70.87-83.74-26-18-29-52-21-80.43a82.26,82.26,0,0,0,2.82-13.94c.51-4.46.63-8.76,2.86-13.22,30.28-40.41,14.28-89.41-1.72-132.41-10-24,12-48,33.56-59.64,9.2-3.71,17.12-6.08,23.14-9.54,34.3-17.82,41.3-55.82,59.3-87.82,16-26,43-41,71.61-44.89,10.52-1.49,20-3,27.8-5.63a335.19,335.19,0,0,1,58.17-16.35,78.73,78.73,0,0,1,19.13-.26c38.29,5.13,76.29-2.87,114.29-1.87,34,1,64,19,91.72,38.23,7,4.11,13.71,8.23,20.31,12.52a219.6,219.6,0,0,1,18.84,13.72c10.13,20.53,20.13,43.53,41.13,54.53,44,24,86,59,82.51,113.44-.37,10.78,1.38,18.95,2.91,27.17a337,337,0,0,1,7.6,55C817,468.66,816.72,474.81,814.36,480.39Z"/><path class="cls-9" d="M796.19,480.86c-18.27,39.07-10.27,81.07-10.27,122.07-1,29-21,52-44,69-7.25,5.56-12.69,11.84-18.35,17.92-4.9,5.7-10.21,10.79-17.17,12.93-19.45,5.2-39.45,12.2-51.45,28.2-31,42-67,89-124.08,71.65-10-2.4-18.17-2.12-26.32-1.86a31.76,31.76,0,0,1-21.95-6.67c-17.65-13.12-39.65-23.12-59.65-15.12-48,18-109,20-133-33.46-5.4-9.76-11.75-15.23-17.88-20.93q-8.55-7.35-16.58-15.26c-5-5.61-7.64-13.6-10.09-22.15-8.46-40.2-43.46-63.2-74.46-88.2-21-16-22-45-14.09-68.6a102.17,102.17,0,0,0,5.07-25c24-38.39,19-84.39,2-124.39-11-28,14-58,41.64-59.69,6.36-1.56,11.36-4.31,16.36-7.31,33-21,37-57,53-89,14-28,46-42,77.48-41.91,10.66-.27,18.87-2.81,26.82-5.46a317.54,317.54,0,0,1,32.52-8.94,56.32,56.32,0,0,1,16.45-1.44c37.73,5.75,74.73.75,112.73-2.25,31-3,63,9,86.92,29,7.19,5.76,14.28,10.54,21.25,15.3a190.74,190.74,0,0,1,18.54,13.07c14.29,42.65,51.29,65.65,89.29,85.65,37,20,39,65,35.88,101.66,1.55,7.85,3,15.65,4.19,23.53s2.1,15.85,2.71,23.9A50.91,50.91,0,0,1,796.19,480.86Z"/><path class="cls-10" d="M779.64,481.7c-16.72,37.23-9.72,77.23-9.72,116.23,1,27-19,51-41.08,65.1-6.93,4.75-12.08,10.65-17.46,16.35-2.46,4.55-7.46,6.55-11.46,7.55-39,12-70,37-88,74-15,30-54,37-83.62,27.83-8.95-2.47-17.28-4.16-25-4-7.55.56-14.54-4.84-22-9.51-30.42-19.32-68.42-18.32-101.42-1.32-32,16-69-8-82.12-39.89a67.85,67.85,0,0,0-15.33-21.66q-8.13-7-15.75-14.5c-4.84-5.37-8-12.89-10.86-21.45-10.94-42.5-48.94-64.5-76.94-95.5-14-14-13-37-5.49-54.27a57.83,57.83,0,0,0,3.66-22.35c19.83-41.38,14.83-85.38,4.83-130.38-4-17,8-31,22.42-39,8.67.46,16.34.32,21.43-2.85,33.67-24.62,49.53-64.65,66.15-103.15,15-36,58-32,92.36-36.18q11.34-3.76,23.05-6.66a68.14,68.14,0,0,1,17.77-2.25c42.82,5.09,85.82-1.91,128.82-2.91,24-1,49,10,67.3,26.64,6.5,5.5,12.91,10.68,19.43,15.25,6.18,3.83,12,8.11,16.06,14.11,16.21,42,53.21,65,92.21,85,33,16,35,58,28.58,91.16q2,11.22,3.66,22.44t2.57,22.71C784.31,465.89,782.72,473.66,779.64,481.7Z"/><path class="cls-11" d="M765.08,482.39c-15.16,38.54-9.16,79.54-11.16,120.54-2,16-12,30-24,41-10,8-21,14-28.49,23.67-5.3,6.29-13.06,10.22-22.17,13.24-23.34,7.09-45.34,20.09-56.34,40.09-25,47-71,71-118.74,48.85-7.86.35-16-5.64-24.68-10.55-35.58-22.3-76.58-8.3-114.58,1.7-38,11-55-31-70.67-58.5q-9.44-7.95-18.16-16.67a383.8,383.8,0,0,0-80.17-110.83c-12-12-13-32-6.51-47.76,2.6-6.9,3.24-14.33,3-22a47.77,47.77,0,0,1,.88-12.95,272.93,272.93,0,0,0,9.63-46.24c5-33-17-72,11.47-96.68,6.48-2.87,14.63-5.24,22.67-10.49,34.86-20.83,49.86-57.83,62.86-94.83,11-31,50-41,79.67-33.4q11.78-4.38,24-7.75a148,148,0,0,1,18.68-3.86c46.63,6,92.63-4,139.63-2,25,1,47,16,64.35,35q10.71,6.27,20.81,13.41c14.84,45.61,55.84,68.61,96.84,91.61,26,14,26,47,20.74,72.52-1.59,8.69-.48,16.49.81,24.26s2.27,15.62,2.93,23.58A57.72,57.72,0,0,1,765.08,482.39Z"/><path class="cls-12" d="M752,482.57c-14.1,36.36-10.1,74.36-13.1,112.36-2,20-15,37-32.26,47.39-6.15,4.23-11.24,10-16.28,16-3.46,4.63-9.46,8.63-14.46,9.63-45,15-68,54-100,85-19,20-48,10-70.51,2.47a28.11,28.11,0,0,1-13-2.47c-39.52-25-84.52-18-129.52-8-35,9-47-30-59.37-53.55q-9-7.54-17.24-15.84a60.67,60.67,0,0,1-13.37-18.94c-12-31.67-35-55.67-58-81.67-12-14-15-33-8.77-50.2,1.61-6.26,1-13.48.66-20.79-.6-7.43-.91-14.93,1-24.52,10.12-33.49,2.12-68.49,11.12-102.49,1-6,7-11,12.42-15.66,4.79-4.52,10.27-10.79,18.2-16.37,36.38-23,48.38-65,69.38-101,13-23,42-25,65.72-19.85q11.17-4.17,22.81-7.37A145.86,145.86,0,0,1,425.27,213c40.65,2.93,80.65-.07,121.65-2.07,28-2,53,13,72.06,33.45q10.17,6,19.76,12.75c16.18,48.8,64.18,66.8,101.18,97.8,18,14,15,39,10.59,58.74-1.57,7.71-.51,15.05.71,22.42s2.16,14.85,2.78,22.41S755,473.7,752,482.57Z"/><path class="cls-13" d="M739.36,482.45c-8.44,32.48-10.44,66.48-13.44,99.48-2,22-14,39-31.44,51.71-5.11,4.54-9.81,10.14-14.6,15.81a53.19,53.19,0,0,1-16,12.48c-23,10-45,21-60,42-25,35-60,56-99.82,37.61-7.77.4-16.55-2.2-26.78-7-34.4-17.57-72.4-10.57-109.4-3.57-15,2-28-4-37-16-8-11-9-25-18.52-34q-8.5-7.17-16.38-15a191.34,191.34,0,0,1-13.57-15.09c-15.53-31.81-36.53-56.81-56.53-87.81-8-12-4-26-2.88-39.2q-1.68-10.34-2.55-20.92t-.86-21.38c5.29-37.5,3.29-78.5,25.11-111.8,3.6-6.71,7.79-13.17,15.49-18.95,30.69-20.75,47.69-54.75,63.69-87.75,12-26,41-31,65.51-26q10.62-4,21.67-7A155.11,155.11,0,0,1,428,226.24c60.89,8.69,135.89-22.31,184,30q9.66,5.65,18.78,12.1c19.09,39.59,55.09,63.59,92.09,90.59,19,13,19,38,13.49,58.69-1,6.82.11,13.73,1.27,20.74s2.05,14.1,2.64,21.28S741.22,474.09,739.36,482.45Z"/><path class="cls-14" d="M728.18,481.43c-16.26,45.5-.26,106.5-42.31,138.52Q679.2,629.83,671.6,639a61.08,61.08,0,0,1-17.13,15c-39.55,15.92-62.55,52.92-99.55,75.92-9,6-21,5-31.34,1.82-6.3-2-13-3.9-20.33-3.61-7.51.69-15.13,1-25.34-3.49-35-17.72-75-9.72-112-9.72-14,0-28-9-31.41-23.76-2.51-6.81-5.95-13.34-11.68-18.57a248.77,248.77,0,0,1-30.52-29.94,105.3,105.3,0,0,1-13.48-19.59c-16.91-31.14-43.91-59.14-42.07-96.57q-2-11-3-22.25c-.69-7.51-1-15.13-1-22.82q0-8.56.57-17t1.69-16.65c1-10.88,4-21.88,6.66-32.63,1.38-4.91,3-10.06,4.75-15.13s3.71-10.12,5.8-15.06a177.72,177.72,0,0,1,10.94-21.64c30.84-25.42,51.84-57.42,71.84-92.42,10-17,30-23,49.12-21.77,7.4.18,15-2.27,22.71-4.35q8.73-2.72,17.72-4.8a90.47,90.47,0,0,1,19.38-1.88c52.07,5.8,113.07-15.2,155.89,24.52,6.07,4.52,12.62,8.88,19.21,13.33a577.37,577.37,0,0,0,92,92.95c21,16,10,41,12.23,62.56a245.9,245.9,0,0,1,3.75,24.6A249.52,249.52,0,0,1,728.18,481.43Z"/><path class="cls-15" d="M715.79,481.43c-7.87,45.5-6.87,96.5-40.19,131.59q-6.35,9.39-13.55,18.12a175,175,0,0,1-14,15.05c-33.12,16.74-59.12,42.74-90.12,65.74-11,7-24,9-36.27,4.54-5.63-1.73-12.54-1-19.54-.66-7.14.65-14.37,1-23.2-1.24-36-15.64-75-7.64-114-15.64-11-2-17-11-20.62-20.51-2.34-5.85-8.08-10.48-13.59-15.37a237.16,237.16,0,0,1-41.57-44.45,188.22,188.22,0,0,1-11.72-18.77c-5.5-12.9-14.5-23.9-18.59-37.33-1.9-5.48-3.35-11.16-5.16-17.76a236.22,236.22,0,0,1,19.8-175.51c4-6.73,10.66-13.35,18.17-20.31,8.28-8,16.28-15,23.28-25,19-27,36-66,73.89-59.38q10.56-4.46,21.62-7.91,8.29-2.58,16.84-4.56t17.31-3.31c50.34,4.16,106.34-9.84,148.41,25.51,6.39,3.75,12.77,7.74,19,12a68.05,68.05,0,0,1,18,17.07c17.9,27.61,45.9,46.61,68.9,71.61,9,11,11,24,9.71,37.55-.71,6.46.81,13.85,2.38,21.51a236.26,236.26,0,0,1,3.57,23.37A239.16,239.16,0,0,1,715.79,481.43Z"/><path class="cls-16" d="M704,481.43a212.42,212.42,0,0,1-1.7,26.42c-5.4,25.08-9.4,51.08-21.16,73.81-3.55,5.91-7.56,12.9-11.95,19.63q-6,9.36-12.78,18.06T642,636c-38,21.9-71,64.9-116.9,66.79-6.1-.6-13.56.39-21.13,1A225.35,225.35,0,0,1,480.42,705c-28.5-6.09-58.5-12.09-88.5-14.09-14-2-28-6-35-19.87-3.66-5.17-10-10-16.34-15.16a223.79,223.79,0,0,1-61-272.81,184,184,0,0,1,12.63-21.68,518.53,518.53,0,0,0,53.74-62.48c9-12,22-19,37.11-21.24,6.67-1.27,14.23-4.26,22-6.83a221.55,221.55,0,0,1,36.62-9.68,107,107,0,0,1,20.37-1.6c38.92,1.35,82.92-3.65,116.76,21a222,222,0,0,1,21.53,12.09q9.36,6,18.06,12.78c5.87,4.88,11.62,12.44,17.68,20.22,18.89,28.29,60.89,48.29,57.88,87.77,2,7,3.74,14.24,5.31,21.71A224.28,224.28,0,0,1,704,481.43Z"/><circle cx="475.67" cy="487.73" r="174.2"/></g></g></svg>